<svg width="55" height="61" fill="none" xmlns="http://www.w3.org/2000/svg">
  <path d="M54 26a3.9 3.9 0 00-2.5-1.6c-1-.1-2.1.2-3 .8l-2.7 2.1-4.2 3.1-3-1.2a15.2 15.2 0 00-6.2-29 15.2 15.2 0 00-12.7 23.4h-6.5-.1l-7 3.6-4.2 2h-.2a3.9 3.9 0 004 6.7l3-1.6 5-2.5h3L4.8 43.5l-3 3a3.6 3.6 0 000 5 3.6 3.6 0 005.2 0l3-2.8 3.7-2.8 2 2-3.9 3.8L9 54.7a3.6 3.6 0 000 5.1 3.7 3.7 0 005.2 0L17 57l4.7-4.7 2.2-2.1 11.3-12.5 7.6 1.1a1.1 1.1 0 00.6 0l.1-.1h.1l7-4.7.1-.1h.1l2.8-2.7a3.9 3.9 0 00.5-5.1zM4.8 33.9c-.4.2-.8.2-1.3 0a1.6 1.6 0 01-.4-2.7l2.8-1.4.7 2 .3 1-2.1 1zm7.6-4L9 31.6 8.4 30 8 28.8l4.4-2.2V30zm33-14.5c0 2-.4 3.9-1.3 5.6L35 16.8a4 4 0 00-1.7-3l3.2-10.6c5.2 1.6 9 6.5 9 12.2zm-25.7 0A12.9 12.9 0 0134 2.7L30.9 13a4 4 0 00-4.2 4 4 4 0 007.7 2l8.4 3.9a12.9 12.9 0 01-23.2-7.6zm13 1.7c0 1-.8 1.8-1.8 1.8s-1.7-.8-1.7-1.8.7-1.7 1.7-1.7 1.8.8 1.8 1.7zm-27.2 33c-.5.4-1.4.4-1.9 0a1.3 1.3 0 010-2l2.1-2 1.9 1.8L5.4 50zm7 8c-.5.6-1.3.6-1.8 0a1.3 1.3 0 010-1.8l2-2 1 .8 1 1-2.2 2zm7.6-7.5l-3.8 3.8-1-.8-.9-1 3.9-3.9.2-.3V48l.1-.2v-.2-.2l-.3-.3V47l-3.5-3.5h-.2l-.2-.2h-.2l-.2-.1h-.2-.2l-.2.1H13l-3.8 3-2-2 5.2-5.2 9.6 9.4-2 2zm15-15.4h-.1a1.1 1.1 0 00-.9.3v.1L23.6 47l-9.5-9.3 6.2-6.2a1.2 1.2 0 00-.8-2h-4.9V26h6.8a15.2 15.2 0 0013.7 4.4l.3.2 5.3 2 .3 1.7.4 2-6.5-1zm8.8.4l-.7-3.4 3.2-2.3.8 1 1.2 1.7-4.5 3zm8.2-6.2l-1.8 1.8-2-2.8 1.8-1.3c.3-.3.7-.4 1.1-.4a1.6 1.6 0 011 2.7z" fill="#212121"/>
</svg>
