<svg aria-hidden="true" style="position: absolute; width: 0; height: 0; overflow: hidden;" version="1.1" xmlns="http://www.w3.org/2000/svg" xmlns:xlink="http://www.w3.org/1999/xlink">
<defs>
<symbol id="icon-customers-logo-1" viewBox="0 0 32 32">
<path fill="#afb1b8" style="fill: var(--color1, #afb1b8)" d="M5 0l4.867 4.467h13.6v12.467l4.867 4.467v-21.4h-23.333z"></path>
<path fill="#afb1b8" style="fill: var(--color1, #afb1b8)" d="M1 4.267v20.8h22.667v-8.267l-13.667-12.533h-9zM19.333 22h-14.733v-14h1v13.067h13.733v0.933zM7.533 29l0.533-1.133h0.467l-0.867 1.467v0.933h-0.4v-0.933l-0.8-1.467h0.533l0.533 1.133zM9.867 29.667h-0.933l-0.2 0.6h-0.4l0.867-2.4h0.4l0.867 2.4h-0.4l-0.2-0.6zM9.067 29.333h0.667l-0.333-0.933-0.333 0.933zM11.467 29.6c0-0.133 0-0.2 0.133-0.333 0 0 0.133-0.2 0.333-0.267l-0.2-0.333v-0.2c0-0.2 0-0.333 0.133-0.467s0.267-0.133 0.467-0.133c0.133 0 0.267 0 0.4 0.133 0.133 0.067 0.2 0.2 0.2 0.333s0 0.2-0.133 0.333l-0.2 0.2-0.2 0.133 0.467 0.533 0.133-0.4h0.333c0 0.267-0.067 0.533-0.2 0.667l0.333 0.467h-0.467l-0.133-0.2-0.6 0.2c-0.267 0-0.4 0-0.533-0.2-0.147-0.109-0.246-0.275-0.266-0.464l-0-0.003zM12.267 29.933c0.133 0 0.267 0 0.4-0.133l-0.533-0.6c-0.2 0.133-0.267 0.267-0.267 0.4 0 0.067 0 0.2 0.133 0.267l0.267 0.067zM12.067 28.4c0 0.133 0 0.267 0.133 0.4l0.2-0.133 0.133-0.267v-0.2h-0.4l-0.067 0.2zM16.333 29.467c0 0.267-0.067 0.467-0.267 0.6-0.133 0.133-0.333 0.2-0.667 0.2-0.133 0-0.333 0-0.467-0.133-0.133-0.067-0.267-0.2-0.333-0.4-0.077-0.156-0.126-0.338-0.133-0.531l-0-0.003v-0.267c0-0.2 0-0.4 0.133-0.533 0.133-0.317 0.442-0.536 0.801-0.536 0.023 0 0.046 0.001 0.069 0.003l-0.003-0c0.267 0 0.467 0 0.667 0.2 0.133 0.133 0.2 0.333 0.2 0.6h-0.4c0-0.2 0-0.333-0.133-0.4l-0.333-0.067c-0.2 0-0.333 0-0.4 0.133-0.133 0.133-0.2 0.333-0.2 0.667v0.133l0.133 0.6 0.4 0.2c0.2 0 0.333 0 0.4-0.133 0.067 0 0.133-0.133 0.133-0.333h0.4zM18.6 29.133l-0.067 0.6c-0.133 0.2-0.2 0.333-0.4 0.4l-0.467 0.133c-0.2 0-0.4 0-0.533-0.133-0.133-0.067-0.267-0.2-0.333-0.4-0.133-0.2-0.133-0.4-0.133-0.667v-0.067c0-0.267 0-0.467 0.133-0.667 0-0.133 0.2-0.267 0.333-0.333 0.133-0.133 0.333-0.133 0.533-0.133 0.133 0 0.333 0 0.467 0.133 0.2 0.067 0.267 0.2 0.333 0.4 0.133 0.133 0.133 0.333 0.133 0.6v0.133zM18.2 29c0-0.267 0-0.467-0.133-0.667-0.085-0.085-0.202-0.138-0.332-0.138-0.024 0-0.048 0.002-0.071 0.005l0.003-0c-0.2 0-0.333 0-0.467 0.2l-0.133 0.6v0.133c0 0.267 0 0.467 0.133 0.6s0.267 0.2 0.467 0.2l0.4-0.2 0.133-0.667v-0.067z"></path>
</symbol>
<symbol id="icon-customers-logo-2" viewBox="0 0 32 32">
<path fill="#afb1b8" style="fill: var(--color1, #afb1b8)" d="M14.154 1.846h0.554c0.738 0 1.477 0.123 2.215 0.308v-1.723c-0.957-0.264-2.058-0.421-3.194-0.431l-0.006-0h-0.185c-0.021-0-0.046-0-0.071-0-3.422 0-6.626 0.938-9.367 2.57l0.084-0.046v17.477c2.419-1.34 5.28-2.189 8.324-2.337l0.045-0.002h0.677v-1.846c-2.398 0.055-4.675 0.502-6.793 1.278l0.147-0.047-0.615 0.185v-13.662l0.246-0.123c2.13-1.006 4.626-1.595 7.26-1.6h0.679z"></path>
<path fill="#afb1b8" style="fill: var(--color1, #afb1b8)" d="M18.523 3.692c-1.213-0.025-2.376-0.18-3.494-0.453l0.11 0.023v17.231c1.108 0.308 2.215 0.492 3.385 0.431 0.024 0 0.053 0 0.082 0 3.39 0 6.567-0.914 9.298-2.509l-0.088 0.047v-17.231c-2.661 1.506-5.835 2.412-9.216 2.461l-0.015 0zM25.415 3.938l0.615-0.185v13.6l-0.246 0.123c-2.17 1.069-4.724 1.695-7.424 1.695-0.376 0-0.749-0.012-1.118-0.036l0.050 0.003h-0.369v-14.092h1.538c2.47-0.004 4.839-0.432 7.040-1.215l-0.148 0.046zM5.354 25.969c-0.161-0.15-0.377-0.243-0.615-0.246h-0.431c-0.362 0.13-0.617 0.471-0.617 0.871 0 0.018 0.001 0.037 0.002 0.055l-0-0.003v2.338c0 0.185 0 0.369 0.123 0.492 0 0.123 0.123 0.246 0.185 0.308l0.369 0.185h0.677c0.364-0.15 0.615-0.502 0.615-0.913 0-0.004-0-0.007-0-0.011v0.001-0.246h-0.615v0.369l-0.246 0.246h-0.123c-0.017 0.003-0.037 0.005-0.058 0.005-0.103 0-0.194-0.050-0.25-0.128l-0.001-0.001-0.062-0.369v-2.462c0.048-0.11 0.157-0.186 0.282-0.186 0.009 0 0.018 0 0.026 0.001l-0.001-0c0.111 0.014 0.203 0.085 0.245 0.183l0.001 0.002c0.123 0.062 0.123 0.185 0.123 0.308v0.185h0.615v-0.246c-0.008-0.287-0.123-0.546-0.308-0.739l0 0zM8.985 25.969c-0.188-0.151-0.429-0.243-0.692-0.243-0.127 0-0.248 0.021-0.362 0.060l0.008-0.002c-0.123 0-0.246 0.062-0.308 0.185l-0.246 0.308-0.062 0.431v2.277l0.062 0.431c0 0.123 0.123 0.246 0.246 0.308 0.062 0.123 0.185 0.185 0.308 0.185 0.11 0.043 0.237 0.067 0.369 0.067s0.26-0.025 0.376-0.070l-0.007 0.002c0.123 0 0.246-0.062 0.308-0.185 0.19-0.18 0.308-0.434 0.308-0.715 0-0.008-0-0.016-0-0.024l0 0.001v-2.277l-0.062-0.431c0-0.123-0.123-0.246-0.246-0.308zM8.738 28.923c0 0.002 0 0.004 0 0.006 0 0.117-0.047 0.224-0.123 0.302l0-0c-0.078 0.080-0.187 0.129-0.308 0.129s-0.229-0.049-0.308-0.129l-0-0c-0.076-0.078-0.123-0.184-0.123-0.302 0-0.002 0-0.004 0-0.006v0-2.277c0.025-0.074 0.068-0.136 0.123-0.184l0-0c0.078-0.080 0.187-0.129 0.308-0.129s0.229 0.049 0.308 0.129l0 0c0.076 0.078 0.123 0.184 0.123 0.302 0 0.002-0 0.004-0 0.006v-0 2.277zM13.785 29.969v-4.246h-0.615l-0.738 2.277-0.8-2.277h-0.615v4.246h0.615v-2.585l0.615 1.846h0.308l0.615-1.846v2.585h0.615zM17.231 26.031l-0.369-0.246h-1.354v4.185h0.615v-1.662h0.308c0.185 0 0.369 0 0.554-0.123l0.308-0.308 0.185-0.369c0.033-0.167 0.051-0.358 0.051-0.554s-0.019-0.387-0.054-0.573l0.003 0.019-0.246-0.369zM16.923 27.262l-0.062 0.308-0.185 0.123c-0.046 0.012-0.099 0.020-0.154 0.020s-0.108-0.007-0.158-0.020l0.004 0.001h-0.246v-1.415h0.308l0.246 0.062 0.185 0.185v0.8zM20.062 25.723h-0.492l-0.923 4.246h0.615l0.185-0.923h0.8l0.185 0.923h0.615l-0.985-4.246zM19.508 28.492l0.308-1.538 0.308 1.538h-0.615zM24 28.308l-0.985-2.585h-0.554v4.246h0.615v-2.523l0.923 2.523h0.615v-4.246h-0.615v2.585zM27.692 25.723l-0.492 1.662-0.554-1.662h-0.615l0.862 2.462v1.785h0.615v-1.846l0.8-2.4h-0.615zM3.692 31.138h0.308v0.862h0.185v-0.862h0.308v-0.123h-0.8v0.123zM6.154 31.015l-0.369 0.985h0.185l0.062-0.246h0.431l0.062 0.246h0.246l-0.431-0.985h-0.185zM6.154 31.631l0.062-0.431 0.185 0.369h-0.308zM8.615 31.631h0.185v0.123l-0.246 0.062c-0.006 0.001-0.013 0.001-0.021 0.001-0.063 0-0.12-0.024-0.164-0.063l0 0-0.123-0.246c0-0.246 0.123-0.369 0.308-0.369 0.018-0.007 0.040-0.011 0.062-0.011 0.102 0 0.185 0.083 0.185 0.185 0 0.004-0 0.007-0 0.011l0-0h0.185c0-0.246-0.185-0.369-0.431-0.369l-0.369 0.123c-0.082 0.088-0.132 0.206-0.132 0.336 0 0.034 0.003 0.066 0.010 0.098l-0.001-0.003c0 0.123 0 0.246 0.123 0.369 0.087 0.077 0.202 0.125 0.328 0.125 0.015 0 0.029-0.001 0.043-0.002l-0.002 0c0.185 0 0.308 0 0.431-0.185v-0.369h-0.431v0.185zM11.077 31.015h-0.246v0.985h0.677v-0.185h-0.431v-0.8zM13.108 31.015h-0.185v0.985h0.185v-0.985zM15.138 31.631l-0.369-0.615h-0.185v0.985h0.185v-0.615l0.369 0.615h0.185v-0.985h-0.185v0.615zM16.985 31.569h0.492v-0.185h-0.492v-0.246h0.554v-0.123h-0.738v0.985h0.738v-0.185h-0.554v-0.246zM21.538 31.385h-0.431v-0.369h-0.185v0.985h0.185v-0.431h0.369v0.431h0.185v-0.985h-0.123v0.369zM23.385 31.569h0.431v-0.185h-0.431v-0.246h0.554v-0.123h-0.738v0.985h0.738v-0.185h-0.554v-0.246zM25.846 31.569c0.185 0 0.246-0.123 0.246-0.308 0.001-0.006 0.001-0.013 0.001-0.021 0-0.063-0.024-0.12-0.063-0.164l0 0c-0.075-0.040-0.164-0.064-0.258-0.064-0.017 0-0.035 0.001-0.052 0.002l0.002-0h-0.431v0.985h0.246v-0.431h0.123l0.062 0.123 0.246 0.308h0.246l-0.123-0.185-0.246-0.246zM25.662 31.385h-0.123v-0.246h0.308c0.068 0 0.123 0.055 0.123 0.123s-0.055 0.123-0.123 0.123v0c-0.028 0.004-0.060 0.007-0.092 0.007s-0.065-0.003-0.096-0.007l0.003 0zM27.754 31.569h0.492v-0.185h-0.492v-0.246h0.554v-0.123h-0.738v0.985h0.738v-0.185h-0.554v-0.246z"></path>
</symbol>
<symbol id="icon-customers-logo-3" viewBox="0 0 32 32">
<path fill="#afb1b8" style="fill: var(--color1, #afb1b8)" d="M5.181 30.857h0.076l0.152 0.152-0.381 0.305-0.686 0.152c-0.197-0.019-0.378-0.073-0.542-0.156l0.009 0.004c-0.354-0.134-0.628-0.408-0.759-0.753l-0.003-0.009c-0.061-0.158-0.096-0.342-0.096-0.533s0.035-0.375 0.1-0.544l-0.003 0.010c0.134-0.354 0.408-0.628 0.753-0.759l0.009-0.003c0.181-0.069 0.391-0.109 0.61-0.109s0.428 0.040 0.622 0.113l-0.012-0.004 0.381 0.305-0.152 0.152h-0.152l-0.152-0.076c-0.152-0.093-0.336-0.149-0.532-0.152h-0.001l-0.381 0.076c-0.152 0-0.305 0.152-0.381 0.229l-0.229 0.457v0.838c0 0.152 0.152 0.305 0.229 0.381l0.305 0.229h0.686c0.178-0.033 0.334-0.114 0.458-0.229l-0.001 0.001h0.076zM9.752 30.019c0 0.229 0 0.381-0.152 0.61l-0.229 0.457-0.457 0.229c-0.457 0.152-0.838 0.152-1.219 0l-0.457-0.229-0.305-0.457c-0.070-0.169-0.111-0.365-0.111-0.571s0.041-0.402 0.115-0.582l-0.004 0.010c0-0.152 0.152-0.305 0.305-0.457l0.457-0.305c0.381-0.076 0.762-0.076 1.219 0l0.457 0.305 0.229 0.457 0.152 0.533zM9.295 30.019v-0.457l-0.229-0.305-0.381-0.229h-0.838c-0.247 0.095-0.439 0.286-0.531 0.527l-0.002 0.006v0.914c0 0.152 0.076 0.305 0.229 0.381l0.305 0.229h0.838l0.381-0.229 0.152-0.381c0.076-0.152 0.152-0.305 0.076-0.457zM12.8 30.476v0.152l0.152-0.076v-0.152l0.99-1.676h0.457v2.667h-0.305v-2.133l-0.99 1.676-0.152 0.076h-0.152v-0.076l-1.067-1.752v2.21h-0.305v-2.743h0.305l0.076 0.076 1.067 1.676v0.152zM16.61 30.4v0.99h-0.381v-2.743h0.838l0.533 0.076 0.305 0.152 0.229 0.305v0.686l-0.229 0.305-0.381 0.152c-0.136 0.046-0.293 0.074-0.456 0.076h-0.458zM16.61 30.095h0.762l0.229-0.152 0.152-0.152v-0.457l-0.152-0.229c-0.127-0.097-0.287-0.156-0.462-0.156-0.025 0-0.050 0.001-0.075 0.004l0.003-0h-0.457v1.143zM21.867 31.39h-0.381l-0.305-0.762h-1.371l-0.305 0.762h-0.381l1.143-2.743h0.381l1.219 2.743zM19.962 30.476h0.99l-0.457-1.143-0.076-0.229v0.152l-0.076 0.076-0.457 1.143zM23.543 28.724h0.076l1.752 2.057v-2.21h0.305v2.743h-0.305l-1.752-2.133v2.21h-0.305v-2.743h0.229zM28.571 30.324v1.067h-0.381v-1.067l-1.143-1.676h0.381l0.076 0.152 0.686 1.067c0.053 0.067 0.104 0.142 0.148 0.22l0.004 0.008v-0.152l0.076-0.076 0.686-1.143h0.61l-1.143 1.524zM12.571 24.076h0.61c2.625-1.070 4.795-2.799 6.371-4.986l0.029-0.043c1.524-2.286 2.286-4.952 2.286-7.619l-2.895-2.667c0.198 0.898 0.311 1.929 0.311 2.987 0 1.972-0.394 3.853-1.109 5.566l0.035-0.096c-1.143 2.743-3.048 5.105-5.562 6.857z"></path>
<path fill="#afb1b8" style="fill: var(--color1, #afb1b8)" d="M11.581 24h0.076c2.619-1.706 4.647-4.126 5.83-6.985l0.037-0.101c1.143-2.819 1.295-5.867 0.533-8.838l-4.19-3.81c1.314 2.381 2.088 5.219 2.088 8.238 0 4.421-1.659 8.455-4.388 11.513l0.015-0.017zM25.676 14.629c-1.021 3.97-3.662 7.185-7.159 8.954l-0.079 0.036c2.057-0.533 3.886-1.524 5.41-2.819s2.743-2.895 3.505-4.724l-1.676-1.524z"></path>
<path fill="#afb1b8" style="fill: var(--color1, #afb1b8)" d="M24.99 14.171l-2.362-2.21c0 2.514-0.838 4.952-2.286 7.162-1.475 2.183-3.456 3.919-5.78 5.066l-0.087 0.039c0.61 0 1.143 0 1.676-0.152 2.286-0.762 4.19-2.21 5.79-3.886 1.524-1.752 2.59-3.81 3.048-6.019zM11.962 2.667l-2.895-2.667c-2.577 0.907-4.726 2.491-6.3 4.54l-0.024 0.032c-1.524 2.133-2.286 4.571-2.362 7.086 0 2.819 1.067 5.562 2.895 7.695 1.877 2.203 4.411 3.796 7.297 4.477l0.093 0.018c2.711-2.988 4.371-6.974 4.371-11.347 0-3.69-1.181-7.103-3.186-9.883l0.034 0.050zM31.619 13.714c0-3.276-1.448-6.476-3.962-8.762-2.517-2.329-5.897-3.757-9.611-3.757-1.746 0-3.419 0.316-4.963 0.894l0.098-0.032 17.524 16.152c0.61-1.371 0.914-2.895 0.914-4.419z"></path>
</symbol>
<symbol id="icon-customers-logo-4" viewBox="0 0 32 32">
<path fill="#afb1b8" style="fill: var(--color1, #afb1b8)" d="M4.995 12.839c-0.937 0-1.678 0.702-1.678 1.522s0.78 1.522 1.678 1.522 1.639-0.702 1.639-1.522c0-0.819-0.741-1.522-1.639-1.522zM17.132 12.371c0-1.171-0.507-2.263-1.405-3.122-0.876-0.775-2.035-1.249-3.304-1.249-0.018 0-0.036 0-0.055 0l0.003-0c-1.249 0-2.459 0.468-3.356 1.288-0.898 0.78-1.405 1.951-1.405 3.083v6.4s9.522-1.015 9.522-6.4zM0 20.878c0 0.78 0.351 1.561 0.976 2.107 0.619 0.555 1.44 0.894 2.341 0.894s1.723-0.339 2.345-0.897l-0.003 0.003c0.582-0.522 0.953-1.269 0.976-2.103l0-0.004v-4.488s-6.634 0.702-6.634 4.488zM3.317 21.659c-0.156 0-0.351-0.078-0.468-0.156-0.153-0.077-0.274-0.198-0.349-0.347l-0.002-0.004c-0.039-0.156-0.078-0.312 0-0.468 0-0.156 0.078-0.273 0.195-0.39 0.161-0.136 0.372-0.218 0.601-0.218 0.121 0 0.236 0.023 0.342 0.064l-0.006-0.002c0.156 0 0.312 0.156 0.39 0.273 0.095 0.128 0.151 0.288 0.151 0.462 0 0.216-0.088 0.411-0.229 0.553l-0 0-0.312 0.156-0.312 0.078zM10.029 21.19h-0.624v0.702h-0.39v-1.678h1.132v0.273h-0.78v0.429h0.663v0.273zM11.707 21.073c0 0.195-0.039 0.312-0.117 0.429-0.104 0.226-0.326 0.382-0.584 0.39l-0.001 0c-0.156 0-0.273 0-0.39-0.078s-0.195-0.156-0.234-0.273c-0.078-0.156-0.117-0.273-0.117-0.429v-0.078c0-0.195 0.039-0.312 0.117-0.468 0.104-0.226 0.326-0.382 0.584-0.39l0.001-0c0.156 0 0.273 0.039 0.39 0.117s0.195 0.156 0.234 0.273c0.078 0.156 0.117 0.273 0.117 0.429v0.078zM11.317 20.995c0-0.156 0-0.273-0.078-0.39-0.058-0.072-0.146-0.118-0.245-0.118-0.010 0-0.020 0-0.030 0.001l0.001-0c-0.078 0-0.195 0-0.234 0.117-0.078 0.117-0.117 0.234-0.117 0.39v0.078c0 0.195 0.039 0.312 0.117 0.39 0.039 0.117 0.156 0.156 0.273 0.156 0.078 0 0.195-0.039 0.234-0.117 0.078-0.117 0.117-0.234 0.117-0.39v-0.117zM12.8 21.463c0-0.078 0-0.117-0.078-0.156l-0.234-0.117-0.273-0.117c-0.195-0.117-0.273-0.234-0.273-0.39 0-0.117 0-0.195 0.078-0.273 0-0.078 0.117-0.117 0.195-0.156l0.312-0.078 0.312 0.078c0.117 0.039 0.195 0.117 0.234 0.195l0.078 0.273h-0.351c0-0.078 0-0.156-0.078-0.195-0.052-0.046-0.12-0.075-0.195-0.078l-0.001-0-0.195 0.078-0.078 0.117 0.078 0.156 0.273 0.117c0.195 0.039 0.312 0.117 0.39 0.195 0.117 0.078 0.156 0.195 0.156 0.312 0 0.156-0.039 0.273-0.156 0.39l-0.429 0.078-0.39-0.039-0.234-0.195-0.078-0.312h0.39c0 0.195 0.078 0.273 0.312 0.273h0.156l0.078-0.156zM14.634 20.488h-0.507v1.405h-0.351v-1.405h-0.507v-0.273h1.366v0.273zM15.805 21.151h-0.585v0.507h0.78v0.273h-1.171v-1.678h1.171v0.273h-0.78v0.39h0.663v0.273zM16.78 21.268h-0.273v0.624h-0.39v-1.678h0.663c0.195 0 0.351 0.039 0.429 0.117 0.117 0.117 0.156 0.234 0.156 0.39l-0.039 0.273-0.234 0.195 0.39 0.663h-0.39l-0.312-0.585zM16.507 20.995h0.273c0.078 0 0.156 0 0.195-0.078l0.078-0.156c0-0.078 0-0.156-0.078-0.195l-0.195-0.078h-0.273v0.507zM18.576 21.307v0.585h-0.351v-1.678h0.663c0.117 0 0.234 0 0.312 0.078 0.117 0.039 0.195 0.117 0.234 0.195l0.078 0.273c0 0.156-0.078 0.312-0.195 0.39-0.078 0.117-0.234 0.156-0.429 0.156h-0.312zM18.576 21.034h0.312l0.195-0.078 0.078-0.195c0-0.078 0-0.156-0.078-0.195-0.049-0.048-0.117-0.078-0.191-0.078-0.001 0-0.003 0-0.004 0h-0.312v0.546zM20.761 21.151h-0.663v0.507h0.78v0.273h-1.171v-1.678h1.171v0.273h-0.78v0.39h0.663v0.273zM22.322 20.488h-0.468v1.405h-0.39v-1.405h-0.468v-0.273h1.327v0.273zM23.532 21.151h-0.663v0.507h0.78v0.273h-1.132v-1.678h1.132v0.273h-0.78v0.39h0.663v0.273zM24.468 21.268h-0.273v0.624h-0.39v-1.678h0.624c0.195 0 0.351 0.039 0.468 0.117 0.078 0.117 0.156 0.234 0.156 0.39 0 0.117 0 0.195-0.078 0.273-0.039 0.078-0.117 0.156-0.234 0.195l0.39 0.663h-0.39l-0.312-0.585zM24.195 20.995h0.273c0.078 0 0.156 0 0.195-0.078l0.078-0.156c0-0.078 0-0.156-0.078-0.195l-0.195-0.078h-0.273v0.507zM26.224 21.463l-0.078-0.195-0.546-0.234c-0.195-0.117-0.273-0.234-0.273-0.39 0-0.117 0-0.195 0.078-0.273l0.195-0.156 0.351-0.078 0.312 0.078 0.195 0.195c0.078 0.078 0.078 0.156 0.078 0.273h-0.312l-0.078-0.195c-0.052-0.046-0.12-0.075-0.195-0.078l-0.001-0c-0.117 0-0.156 0.039-0.195 0.078-0.078 0-0.078 0.078-0.078 0.117 0 0.078 0 0.117 0.078 0.156l0.234 0.117c0.195 0.039 0.351 0.117 0.39 0.195 0.117 0.078 0.156 0.195 0.156 0.312 0 0.156-0.039 0.273-0.156 0.39l-0.429 0.078-0.39-0.039-0.195-0.195c-0.078-0.117-0.078-0.195-0.078-0.312h0.312c0 0.195 0.117 0.273 0.351 0.273h0.195l0.078-0.156z"></path>
</symbol>
<symbol id="icon-customers-logo-5" viewBox="0 0 32 32">
<path fill="#afb1b8" style="fill: var(--color1, #afb1b8)" d="M2.441 24.57c0.108 0.163 0.163 0.325 0.163 0.542 0.002 0.022 0.003 0.047 0.003 0.072 0 0.249-0.105 0.474-0.274 0.633l-0 0c-0.217 0.163-0.542 0.271-0.868 0.217h-1.464v-3.471h1.464c0.271 0 0.542 0.054 0.814 0.271 0.167 0.15 0.272 0.366 0.272 0.607 0 0.015-0 0.030-0.001 0.046l0-0.002c0 0.163-0.054 0.38-0.163 0.542-0.108 0.108-0.271 0.217-0.434 0.217 0.163 0.054 0.38 0.163 0.488 0.325zM0.705 24.027h0.597c0.163 0 0.271 0 0.434-0.108 0.068-0.076 0.11-0.178 0.11-0.289 0-0.013-0.001-0.026-0.002-0.038l0 0.002c0.005-0.025 0.008-0.054 0.008-0.084 0-0.115-0.044-0.219-0.117-0.296l0 0-0.434-0.108h-0.597v0.922zM1.79 25.383c0.072-0.077 0.117-0.181 0.117-0.296 0-0.030-0.003-0.059-0.009-0.086l0 0.003c0.001-0.011 0.002-0.024 0.002-0.037 0-0.111-0.042-0.212-0.11-0.289l0 0c-0.163-0.108-0.271-0.163-0.434-0.163h-0.651v0.976h0.651c0.163 0 0.271 0 0.434-0.108zM5.424 26.034l-0.814-1.356h-0.325v1.356h-0.705v-3.471h1.356c0.325 0 0.651 0.108 0.922 0.325 0.179 0.193 0.289 0.452 0.289 0.737 0 0.255-0.088 0.49-0.236 0.676l0.002-0.002c-0.149 0.186-0.354 0.32-0.589 0.378l-0.007 0.002 0.868 1.356h-0.759zM4.339 24.244h0.542c0.38 0 0.542-0.217 0.542-0.542 0.002-0.015 0.002-0.033 0.002-0.051 0-0.124-0.042-0.238-0.112-0.33l0.001 0.001c-0.108-0.108-0.271-0.163-0.434-0.163h-0.542v1.085zM9.22 25.329h-1.41l-0.217 0.705h-0.759l1.302-3.417h0.759l1.302 3.417h-0.759l-0.217-0.705zM9.003 24.786l-0.488-1.41-0.542 1.464h1.085zM13.993 26.034h-0.705l-1.573-2.332v2.332h-0.651v-3.471h0.651l1.573 2.386v-2.386h0.705v3.471zM17.898 25.22c-0.108 0.271-0.325 0.488-0.597 0.597-0.325 0.163-0.651 0.217-0.976 0.217h-1.247v-3.471h1.247c0.325 0 0.651 0.054 0.976 0.217 0.271 0.163 0.488 0.38 0.597 0.597 0.141 0.268 0.224 0.585 0.224 0.922s-0.083 0.654-0.23 0.933l0.005-0.011zM17.139 25.112c0.178-0.221 0.286-0.505 0.286-0.814s-0.108-0.593-0.288-0.816l0.002 0.003c-0.217-0.217-0.542-0.325-0.868-0.325h-0.488v2.332h0.488c0.325 0 0.651-0.108 0.868-0.325zM9.654 3.254s8.895 3.363 8.678 8.298v8.244s-8.841-3.363-8.678-8.244v-8.298zM26.305 17.898c1.736-1.193 3.634-1.898 5.695-2.169v-2.549c-2.332 0.922-4.339 2.549-5.695 4.664z"></path>
<path fill="#afb1b8" style="fill: var(--color1, #afb1b8)" d="M25.329 18.658c1.356-2.82 3.797-4.936 6.671-6.020v-7.485s-12.692 4.881-12.475 11.824v11.77l1.519-0.597v-1.139c0.271-3.254 1.79-6.237 4.285-8.353z"></path>
<path fill="#afb1b8" style="fill: var(--color1, #afb1b8)" d="M24.136 23.051c0-0.814 0.217-1.627 0.434-2.441-1.63 1.906-2.644 4.381-2.712 7.091l-0 0.014c1.041-0.483 1.841-0.899 2.623-1.343l-0.183 0.095c-0.217-1.139-0.271-2.278-0.163-3.417zM24.624 23.051c-0.108 1.085 0 2.115 0.163 3.092 3.471-2.061 7.376-5.261 7.214-9.22v-0.325c-2.595 0.311-4.877 1.453-6.62 3.148l0.003-0.003c-0.434 1.085-0.651 2.169-0.759 3.308z"></path>
</symbol>
<symbol id="icon-customers-logo-6" viewBox="0 0 32 32">
<path fill="#afb1b8" style="fill: var(--color1, #afb1b8)" d="M16.072 15.353c-0.116-0.17-0.186-0.379-0.186-0.605 0-0.040 0.002-0.080 0.006-0.119l-0 0.005v-1.043c0-0.324 0.072-0.575 0.18-0.719 0.144-0.18 0.36-0.252 0.719-0.252 0.324 0 0.539 0.072 0.647 0.216 0.144 0.18 0.216 0.396 0.216 0.611v0.252h-0.575v-0.503l-0.072-0.144c-0.045-0.026-0.1-0.041-0.158-0.041-0.020 0-0.040 0.002-0.060 0.005l0.002-0c-0.015-0.002-0.033-0.004-0.052-0.004-0.060 0-0.116 0.015-0.166 0.041l0.002-0.001-0.072 0.18-0.036 0.252v1.258c0 0.108 0 0.252 0.072 0.36l0.108 0.072c0.036 0 0.108 0.036 0.144 0h0.18c0.072-0.072 0.108-0.108 0.108-0.18v-0.503h0.575v0.216c0 0.252-0.072 0.467-0.216 0.683-0.108 0.144-0.36 0.216-0.647 0.216-0.36 0-0.575-0.072-0.719-0.252zM18.409 15.353c-0.144-0.144-0.216-0.36-0.216-0.719v-1.079c0-0.324 0.072-0.539 0.216-0.719 0.144-0.144 0.36-0.216 0.719-0.216 0.324 0 0.539 0.072 0.683 0.252 0.144 0.144 0.216 0.36 0.216 0.719v1.079c0 0.288-0.072 0.539-0.216 0.719-0.144 0.144-0.36 0.216-0.719 0.216-0.324 0-0.539-0.072-0.719-0.252zM19.38 15.101l0.072-0.36v-1.294c0-0.108 0-0.216-0.072-0.36l-0.108-0.072h-0.36l-0.108 0.108-0.072 0.324v1.294c0 0.108 0 0.216 0.072 0.36l0.108 0.036c0.062 0.053 0.144 0.086 0.233 0.086 0.107 0 0.204-0.047 0.27-0.122l0-0zM20.71 12.656h0.575l0.467 2.013 0.467-2.013h0.575l0.036 2.876h-0.431v-1.978l-0.467 2.013h-0.36l-0.467-2.049v2.049h-0.467l0.072-2.912zM23.515 12.656h0.935c0.539 0 0.791 0.288 0.791 0.827s-0.252 0.791-0.827 0.791h-0.324v1.294h-0.575v-2.912zM24.306 13.879c0.031 0.008 0.067 0.013 0.103 0.013 0.097 0 0.186-0.032 0.258-0.085l-0.001 0.001c0-0.108 0.072-0.216 0.036-0.36v-0.252l-0.072-0.072-0.072-0.036-0.252-0.072h-0.216v0.863h0.216zM26.103 12.656h0.611l0.611 2.876h-0.539l-0.108-0.647h-0.539l-0.144 0.683h-0.539l0.647-2.912zM26.607 14.562l-0.216-1.222-0.216 1.222h0.431zM27.865 12.656h0.36l0.791 1.654v-1.654h0.503v2.876h-0.395l-0.791-1.69v1.726h-0.467v-2.912zM30.634 14.454l-0.647-1.798h0.539l0.36 1.151 0.395-1.151h0.539l-0.647 1.798v1.079h-0.539v-1.079zM16.971 16.827v0.144h-0.431v1.187h-0.18v-1.187h-0.539v-0.144h1.151zM18.445 18.157h-0.18l-0.144-0.36h-0.647l-0.144 0.36h-0.216l0.575-1.33h0.216l0.575 1.33zM17.51 17.69h0.539l-0.252-0.575v-0.108l-0.036 0.072-0.036 0.036-0.216 0.575zM19.416 18.049h0.144c0.065-0.003 0.127-0.016 0.184-0.037l-0.004 0.001 0.072-0.036v-0.36h-0.252v-0.144h0.431v0.539c-0.112 0.077-0.246 0.128-0.392 0.143l-0.004 0h-0.18c-0.108 0-0.18 0-0.288-0.072-0.254-0.092-0.431-0.33-0.431-0.61 0-0 0-0.001 0-0.001v0c0-0.108 0-0.18 0.072-0.288 0-0.072 0.072-0.144 0.144-0.216l0.216-0.144c0.070-0.020 0.151-0.031 0.234-0.031s0.164 0.011 0.24 0.032l-0.006-0.002c0.093 0.010 0.178 0.035 0.256 0.074l-0.004-0.002 0.108 0.072-0.072 0.072h-0.108l-0.108-0.036c-0.070-0.025-0.15-0.039-0.234-0.039s-0.164 0.014-0.239 0.041l0.005-0.002-0.144 0.072c-0.072 0.072-0.108 0.108-0.108 0.18-0.072 0.144-0.072 0.288 0 0.431 0 0.072 0.036 0.144 0.108 0.18l0.144 0.108h0.252zM21.285 18.013h0.611v0.144h-0.827v-1.33h0.216v1.187zM22.58 18.157h-0.216v-1.33h0.216v1.33zM23.299 16.827v0.036l0.863 1.007v-1.043h0.18v1.33h-0.144l-0.863-1.043v1.043h-0.18v-1.33h0.108zM25.78 16.827v0.144h-0.719v0.467h0.611v0.108h-0.575v0.467h0.719v0.144h-0.935v-1.33h0.899zM5.142 8.593l8.737 2.265v7.982l-8.737-2.265v-7.982zM4.566 7.91v9.061l9.888 2.553v-9.025l-9.888-2.589z"></path>
<path fill="#afb1b8" style="fill: var(--color1, #afb1b8)" d="M9.888 23.73l-9.888-2.517v-9.097l9.888 2.553v9.061z"></path>
<path fill="#afb1b8" style="fill: var(--color1, #afb1b8)" d="M4.746 8.485l8.629 2.265-3.667 3.344-8.629-2.229 3.667-3.38zM4.566 7.91l-4.566 4.207 9.888 2.553 4.566-4.171-9.888-2.589zM10.427 23.227l4.027-3.703-4.027-1.043v4.746z"></path>
</symbol>
<symbol id="icon-icon-send" viewBox="0 0 32 32">
<path fill="#fff" style="fill: var(--color2, #fff)" d="M32 0l-32 18 10.267 3.733 15.733-14.667-12 16v8.933l5.733-6.667 7.333 2.667 4.933-28z"></path>
</symbol>
<symbol id="icon-image-mail" viewBox="0 0 32 32">
<path fill="#757575" style="fill: var(--color3, #757575)" d="M29 5h-26c-1.6 0-3 1.2-3 2.8v16.2c0 1.4 1.4 2.8 3 2.8h26c1.6 0 3-1.4 3-2.8v-16.2c0-1.6-1.4-2.8-3-2.8zM29 6.8h0.4l-13.4 10.6-13.4-10.6h26.4zM29 24.8h-26c-0.6 0-1-0.4-1-0.8v-15.2l13.4 10.2 0.6 0.2h0.6l13.4-10.6v15.2c0 0.4-0.4 0.8-1 0.8z"></path>
</symbol>
<symbol id="icon-image-tel" viewBox="0 0 32 32">
<path fill="#757575" style="fill: var(--color3, #757575)" d="M23.467 0h-14.933c-1.707 0-3.2 1.28-3.2 2.987v24.747c0 1.707 1.493 2.987 3.2 2.987h14.933c1.707 0 3.2-1.28 3.2-2.987v-24.747c0-1.707-1.493-2.987-3.2-2.987zM8.533 1.92h14.933c0.64 0 1.067 0.427 1.067 1.067v20.267h-17.067v-20.267c0-0.64 0.427-1.067 1.067-1.067zM23.467 29.013h-14.933c-0.64 0-1.067-0.427-1.067-1.067v-2.773h17.067v2.56c0 0.64-0.427 1.067-1.067 1.067z"></path>
</symbol>
<symbol id="icon-logo-facebook" viewBox="0 0 32 32">
<path fill="#afb1b8" style="fill: var(--color1, #afb1b8)" d="M21.28 5.28h3.040v-5.12l-4.32-0.16c-4.16 0-7.040 2.72-7.040 7.52v4.48h-4.96v5.76h4.8v14.24h5.6v-14.4h4.48l0.8-5.6h-5.28v-3.84c0-1.6 0.48-2.88 2.72-2.88z"></path>
</symbol>
<symbol id="icon-logo-instagram" viewBox="0 0 32 32">
<path fill="#afb1b8" style="fill: var(--color1, #afb1b8)" d="M32 9.44c0-1.6-0.32-2.88-0.8-3.84-0.32-1.12-0.96-2.080-1.76-2.88-0.79-0.823-1.751-1.475-2.826-1.901l-0.054-0.019c-3.142-0.321-6.79-0.504-10.48-0.504s-7.338 0.183-10.934 0.541l0.454-0.037c-1.12 0.48-2.080 1.12-2.88 1.92-0.746 0.756-1.342 1.661-1.741 2.666l-0.019 0.054c-0.48 1.12-0.96 2.24-0.96 4.16-0.035 1.038-0.056 2.258-0.056 3.482 0 4.808 0.311 9.543 0.914 14.186l-0.058-0.548c0.418 1.059 1.014 1.964 1.761 2.721l-0.001-0.001c0.79 0.823 1.751 1.475 2.826 1.901l0.054 0.019c0.96 0.32 2.080 0.64 3.84 0.64 1.251 0.048 2.721 0.075 4.196 0.075 4.553 0 9.045-0.26 13.463-0.765l-0.54 0.050c2.227-0.846 3.954-2.573 4.781-4.744l0.019-0.056 0.64-3.84c0.173-2.39 0.272-5.179 0.272-7.99 0-1.804-0.041-3.599-0.121-5.384l0.009 0.254zM29.12 22.4c0 1.6-0.32 2.4-0.64 3.040-0.48 1.44-1.6 2.56-3.040 3.040-0.48 0.16-1.28 0.48-2.88 0.48-1.382 0.061-3.002 0.095-4.631 0.095-4.004 0-7.959-0.209-11.856-0.616l0.487 0.041c-0.688-0.254-1.276-0.635-1.76-1.12l-0-0c-0.48-0.64-0.96-1.28-1.12-1.92-0.32-0.48-0.64-1.44-0.64-3.040-0.032-1.008-0.051-2.194-0.051-3.384 0-4.389 0.251-8.718 0.739-12.976l-0.049 0.52c0.16-0.64 0.64-1.28 1.12-1.76 0.48-0.64 1.12-0.96 1.76-1.28 0.64-0.16 1.6-0.48 3.2-0.48 1.312-0.055 2.851-0.086 4.397-0.086 3.974 0 7.9 0.205 11.767 0.606l-0.484-0.041c0.8 0.32 1.44 0.64 1.92 1.28 0.48 0.48 0.96 1.12 1.12 1.76 0.32 0.64 0.48 1.44 0.64 3.040 0.116 1.913 0.182 4.149 0.182 6.4s-0.066 4.487-0.196 6.706l0.014-0.306z"></path>
<path fill="#afb1b8" style="fill: var(--color1, #afb1b8)" d="M16 7.84c-0.342-0.051-0.738-0.080-1.14-0.080-4.507 0-8.16 3.653-8.16 8.16s3.653 8.16 8.16 8.16c0.402 0 0.797-0.029 1.184-0.085l-0.044 0.005c3.763-0.776 6.552-4.062 6.552-8s-2.789-7.224-6.499-7.991l-0.053-0.009zM16 21.28c-2.916 0-5.28-2.364-5.28-5.28s2.364-5.28 5.28-5.28v0c2.916 0 5.28 2.364 5.28 5.28s-2.364 5.28-5.28 5.28v0zM26.56 7.52c0 1.060-0.86 1.92-1.92 1.92s-1.92-0.86-1.92-1.92v0c0-1.060 0.86-1.92 1.92-1.92s1.92 0.86 1.92 1.92v0z"></path>
</symbol>
<symbol id="icon-logo-linkedin" viewBox="0 0 32 32">
<path fill="#afb1b8" style="fill: var(--color1, #afb1b8)" d="M32 32v-11.68c0-5.76-1.28-10.24-8-10.24-3.2 0-5.28 1.76-6.24 3.52v-3.040h-6.56v21.44h6.56v-10.56c0-2.88 0.48-5.44 4-5.44 3.36 0 3.52 3.2 3.52 5.6v10.4h6.72zM0.48 10.56h6.72v21.44h-6.72v-21.44zM3.84 0c-2.080 0-3.84 1.6-3.84 3.84 0 2.080 1.6 3.84 3.84 3.84 2.121 0 3.84-1.719 3.84-3.84s-1.719-3.84-3.84-3.84v0z"></path>
</symbol>
<symbol id="icon-logo-twitter" viewBox="0 0 32 32">
<path fill="#afb1b8" style="fill: var(--color1, #afb1b8)" d="M32 6.080c-1.12 0.48-2.4 0.8-3.84 0.96 1.347-0.785 2.365-2.010 2.867-3.475l0.013-0.045c-1.28 0.8-2.56 1.28-4.16 1.6-1.201-1.288-2.908-2.091-4.803-2.091-3.623 0-6.56 2.937-6.56 6.56 0 0.515 0.059 1.015 0.171 1.496l-0.009-0.044c-5.44-0.32-10.24-2.88-13.44-6.88-0.562 0.947-0.894 2.088-0.894 3.307 0 2.289 1.173 4.305 2.95 5.478l0.025 0.015c-1.117-0.011-2.163-0.306-3.072-0.817l0.032 0.017c0 3.2 2.24 5.92 5.28 6.4-0.553 0.173-1.188 0.272-1.847 0.272-0.422 0-0.835-0.041-1.234-0.119l0.040 0.007c0.96 2.72 3.2 4.64 6.24 4.64-2.212 1.759-5.047 2.822-8.129 2.822-0.575 0-1.141-0.037-1.697-0.109l0.066 0.007c2.88 1.92 6.4 2.72 10.080 2.72 0.003 0 0.007 0 0.011 0 10.25 0 18.56-8.31 18.56-18.56 0-0.225-0.004-0.449-0.012-0.672l0.001 0.032c1.44-0.96 2.4-2.080 3.36-3.36z"></path>
</symbol>
<symbol id="icon-soft-1" viewBox="0 0 30 32">
<path d="M29.851 22.080l-8.457-8.503 0.96-4.571c0.229 0.046 0.457 0.137 0.777 0.137 0.007 0 0.016 0 0.025 0 1.187 0 2.149-0.962 2.149-2.149s-0.962-2.149-2.149-2.149c-1.187 0-2.149 0.962-2.149 2.149 0 0.245 0.041 0.481 0.117 0.701l-0.005-0.015-4.983 0.594-8.091-8.137c-0.091-0.091-0.229-0.137-0.366-0.137s-0.274 0.046-0.366 0.137l-1.509 1.509c-0.229 0.229-0.229 0.549 0 0.777l0.823 0.777c-1.129 2.053-1.794 4.499-1.794 7.1 0 4.161 1.7 7.925 4.444 10.635l0.002 0.002-0.046 0.549v6.217h-6.4c-0.014-0-0.030-0-0.046-0-1.464 0-2.651 1.187-2.651 2.651 0 0 0 0 0 0v-0 1.051c0 0.32 0.274 0.549 0.549 0.549h24.549c0.274 0 0.503-0.229 0.503-0.549v-1.051c0-1.463-1.189-2.651-2.651-2.651h-6.4v-2.743c0.899 0.191 1.932 0.3 2.991 0.3 2.586 0 5.020-0.653 7.146-1.803l-0.080 0.039 0.869 0.823c0.091 0.091 0.229 0.137 0.366 0.137s0.274-0.046 0.366-0.137l1.509-1.509c0.229-0.229 0.229-0.549 0-0.777zM22.4 6.217c0.186-0.169 0.434-0.272 0.706-0.272 0.581 0 1.051 0.471 1.051 1.051 0 0.555-0.431 1.010-0.976 1.049l-0.003 0c-0.021 0.002-0.046 0.002-0.072 0.002-0.581 0-1.051-0.471-1.051-1.051 0-0.309 0.133-0.586 0.345-0.779l0.001-0.001zM21.166 9.737l-0.594 2.926-1.189-1.143 1.783-1.783zM20.571 8.823l-1.92 1.92-1.509-1.509 3.429-0.411zM23.086 28.8c0.914 0 1.6 0.731 1.6 1.6v0.549h-23.451v-0.549c0-0.914 0.686-1.6 1.6-1.6h20.251zM15.634 26.651v1.097h-5.349v-1.097h5.349zM10.286 25.6v-4.069c0-1.28 1.189-2.331 2.651-2.331 1.509 0 2.697 1.051 2.697 2.331v4.069h-5.349zM16.686 23.909v-2.423c0-1.829-1.691-3.383-3.749-3.383-1.326 0-2.56 0.64-3.246 1.783-2.369-2.481-3.827-5.85-3.827-9.559 0-2.319 0.57-4.505 1.578-6.426l-0.036 0.076 18.606 18.743c-1.816 0.94-3.965 1.492-6.242 1.492-1.093 0-2.157-0.127-3.177-0.367l0.094 0.019zM27.977 23.223l-0.731-0.823-19.566-19.657-0.823-0.686 0.777-0.777 7.909 8 13.257 13.12-0.777 0.777z"></path>
</symbol>
<symbol id="icon-soft-2" viewBox="0 0 31 32">
<path d="M30.857 15.314c0-0.005 0-0.010 0-0.016 0-8.458-6.856-15.314-15.314-15.314s-15.314 6.856-15.314 15.314c0 6.859 4.51 12.665 10.726 14.615l0.108 0.029c0.137 0 0.229-0.046 0.366-0.137 0.137-0.046 0.229-0.183 0.274-0.366l3.84-12.206c1.058-0.003 1.915-0.861 1.915-1.92 0-1.060-0.86-1.92-1.92-1.92-0.297 0-0.578 0.067-0.829 0.188l0.012-0.005-5.12-5.12c-0.117-0.117-0.279-0.189-0.457-0.189-0.357 0-0.646 0.289-0.646 0.646 0 0.179 0.072 0.34 0.189 0.457l5.12 5.12c-0.114 0.235-0.18 0.511-0.18 0.802 0 0.602 0.284 1.137 0.725 1.48l0.004 0.003-3.657 11.703c-5.431-2.020-9.229-7.159-9.229-13.186 0-7.751 6.283-14.034 14.034-14.034s14.034 6.283 14.034 14.034c0 5.684-3.379 10.578-8.237 12.785l-0.088 0.036-0.366-1.874c-0.057-0.3-0.317-0.524-0.63-0.524-0.162 0-0.31 0.060-0.423 0.159l0.001-0.001-3.84 3.429c-0.137 0.118-0.223 0.292-0.223 0.485 0 0.286 0.188 0.529 0.447 0.61l0.005 0.001 4.891 1.6c0.058 0.019 0.125 0.030 0.195 0.030 0.353 0 0.64-0.287 0.64-0.64 0-0.043-0.004-0.085-0.012-0.126l0.001 0.004-0.366-1.829c5.527-2.379 9.326-7.778 9.326-14.065 0-0.005 0-0.011 0-0.016v0.001zM15.543 14.629c0.353 0 0.64 0.287 0.64 0.64s-0.287 0.64-0.64 0.64v0c-0.353 0-0.64-0.287-0.64-0.64s0.287-0.64 0.64-0.64v0zM17.646 29.486l2.194-1.966 0.594 2.834-2.789-0.914z"></path>
</symbol>
<symbol id="icon-soft-3" viewBox="0 0 32 32">
<path d="M1.6 28.297h25.6c0.869 0 1.6-0.731 1.6-1.6v-2.149c0-0.914-0.731-1.6-1.6-1.6h-0.549v-13.257l3.017-2.88c0.213 0.112 0.465 0.178 0.733 0.178 0.884 0 1.6-0.716 1.6-1.6s-0.716-1.6-1.6-1.6c-0.884 0-1.6 0.716-1.6 1.6 0 0.234 0.050 0.455 0.14 0.655l-0.004-0.010-2.286 2.149v-1.234c0-0.869-0.731-1.6-1.6-1.6h-21.303c-0.914 0-1.6 0.731-1.6 1.6v16h-0.549c-0.914 0-1.6 0.731-1.6 1.6v2.149c0 0.914 0.731 1.6 1.6 1.6zM30.4 4.846c0.047-0.014 0.101-0.023 0.157-0.023 0.303 0 0.549 0.246 0.549 0.549s-0.246 0.549-0.549 0.549c-0.056 0-0.11-0.008-0.161-0.024l0.004 0.001c-0.229-0.070-0.392-0.279-0.392-0.526s0.163-0.456 0.388-0.525l0.004-0.001zM3.2 6.949c0-0.274 0.229-0.503 0.549-0.503h21.303c0.274 0 0.549 0.229 0.549 0.503v2.286l-1.097 1.006v-2.194c0-0.32-0.229-0.549-0.503-0.549h-19.2c-0.274 0-0.549 0.229-0.549 0.549v13.303c0 0.32 0.274 0.549 0.549 0.549h19.2c0.274 0 0.503-0.229 0.503-0.549v-9.646l1.097-1.006v12.251h-22.4v-16zM8 13.897c-0.007-0-0.015-0-0.022-0-0.884 0-1.6 0.716-1.6 1.6s0.716 1.6 1.6 1.6c0.436 0 0.831-0.174 1.12-0.457l-0 0 1.829 0.914c0.229 0.137 0.503 0.091 0.686-0.091l3.931-4.434 3.84 2.88c0.229 0.183 0.503 0.137 0.686 0l3.383-3.2v8.137h-18.103v-12.297h18.103v2.697l-3.749 3.566-3.931-2.926c-0.229-0.183-0.549-0.137-0.731 0.046l-3.977 4.526-1.463-0.777v-0.137c0-0.914-0.686-1.6-1.554-1.6zM8.549 15.497c0 0.303-0.246 0.549-0.549 0.549s-0.549-0.246-0.549-0.549v0c0-0.303 0.246-0.549 0.549-0.549s0.549 0.246 0.549 0.549v0zM11.749 24.046h5.303v0.503c0 0.32-0.229 0.549-0.549 0.549h-4.251c-0.274 0-0.503-0.229-0.503-0.549v-0.503zM1.051 24.549c0-0.274 0.274-0.503 0.549-0.503h9.051v0.503c0 0.914 0.731 1.6 1.6 1.6h4.251c0.914 0 1.6-0.686 1.6-1.6v-0.503h9.097c0.274 0 0.503 0.229 0.503 0.503v2.149c0 0.274-0.229 0.549-0.503 0.549h-25.6c-0.274 0-0.549-0.274-0.549-0.549v-2.149z"></path>
</symbol>
<symbol id="icon-soft-4" viewBox="0 0 32 32">
<path d="M29.902 13.639c-0.306-0.432-0.766-0.738-1.299-0.837l-0.013-0.002c-0.525-0.052-1.102 0.105-1.574 0.42l-1.416 1.102-2.203 1.626-1.574-0.63c2.757-1.295 4.632-4.048 4.632-7.24 0-4.372-3.519-7.923-7.88-7.973l-0.005-0c-4.382 0.029-7.922 3.588-7.922 7.974 0 1.598 0.47 3.085 1.279 4.333l-0.019-0.031h-3.462l-3.672 1.889-2.203 1.049h-0.105c-0.602 0.364-0.998 1.014-0.998 1.757 0 1.13 0.916 2.047 2.047 2.047 0.387 0 0.749-0.108 1.058-0.294l-0.009 0.005 1.574-0.839 2.623-1.311h1.574l-6.243 6.138-1.574 1.574c-0.328 0.339-0.53 0.802-0.53 1.311s0.202 0.972 0.53 1.312l-0.001-0.001c0.344 0.359 0.828 0.582 1.364 0.582s1.020-0.223 1.363-0.582l0.001-0.001 1.574-1.469 1.941-1.469 1.049 1.049-2.046 1.993-1.469 1.574c-0.343 0.342-0.555 0.815-0.555 1.338s0.212 0.996 0.555 1.338l0 0c0.35 0.346 0.832 0.56 1.364 0.56s1.014-0.214 1.364-0.56l3.934-3.934 1.154-1.102 5.928-6.557 3.987 0.577c0.047 0.014 0.101 0.022 0.157 0.022s0.11-0.008 0.161-0.023l-0.004 0.001 0.052-0.052h0.052l3.672-2.466 0.052-0.052h0.052l1.469-1.416c0.396-0.374 0.642-0.902 0.642-1.488 0-0.445-0.142-0.857-0.384-1.193l0.004 0.006zM4.092 17.784c-0.21 0.105-0.42 0.105-0.682 0-0.303-0.131-0.511-0.427-0.511-0.772 0-0.258 0.116-0.489 0.3-0.643l0.001-0.001 1.469-0.734 0.367 1.049 0.157 0.525-1.102 0.525zM8.079 15.685l-1.784 0.892-0.315-0.839-0.21-0.63 2.308-1.154v1.784zM25.39 8.079c0 1.049-0.21 2.046-0.682 2.938l-4.774-2.203c-0.047-0.652-0.386-1.217-0.885-1.569l-0.007-0.004 1.679-5.561c2.728 0.839 4.721 3.41 4.721 6.4zM11.908 8.079c0.037-3.709 3.052-6.702 6.767-6.702 0.259 0 0.514 0.015 0.766 0.043l-0.031-0.003-1.626 5.403c-0.031-0.002-0.068-0.003-0.105-0.003-1.159 0-2.098 0.939-2.098 2.098 0 0.001 0 0.002 0 0.003v-0c-0.015 0.093-0.023 0.201-0.023 0.311 0 1.159 0.939 2.098 2.098 2.098 0.894 0 1.657-0.559 1.959-1.345l0.005-0.014 4.407 2.046c-1.248 1.643-3.203 2.694-5.404 2.694-3.707 0-6.718-2.981-6.767-6.676l-0-0.005zM18.728 8.97c0 0.525-0.42 0.944-0.944 0.944s-0.892-0.42-0.892-0.944 0.367-0.892 0.892-0.892 0.944 0.42 0.944 0.892zM4.459 26.282c-0.262 0.21-0.734 0.21-0.997 0-0.151-0.126-0.246-0.314-0.246-0.525s0.095-0.399 0.245-0.524l0.001-0.001 1.102-1.049 0.997 0.944-1.154 1.102zM8.131 30.479c-0.262 0.315-0.682 0.315-0.944 0-0.117-0.122-0.19-0.289-0.19-0.472s0.072-0.35 0.19-0.472l1.049-1.049 0.525 0.42 0.525 0.525-1.154 1.049zM12.118 26.544l-1.993 1.993-0.525-0.42-0.472-0.525 2.046-2.046 0.105-0.157v-0.21l0.052-0.105v-0.21l-0.157-0.157v-0.052l-1.836-1.836h-0.105l-0.105-0.105h-0.105l-0.105-0.052h-0.21l-0.105 0.052h-0.21l-1.993 1.574-1.049-1.049 2.728-2.728 5.036 4.931-1.049 1.049zM19.987 18.466h-0.052c-0.021-0.003-0.046-0.004-0.071-0.004-0.156 0-0.297 0.062-0.401 0.162l0-0v0.052l-5.508 5.98-4.984-4.879 3.252-3.252c0.1-0.111 0.162-0.259 0.162-0.422 0-0.331-0.255-0.602-0.579-0.628l-0.002-0h-2.571v-1.836h3.567c1.452 1.505 3.488 2.44 5.741 2.44 0.511 0 1.011-0.048 1.495-0.14l-0.050 0.008 0.157 0.105 2.78 1.049 0.157 0.892 0.21 1.049-3.41-0.525zM24.603 18.675l-0.367-1.784 1.679-1.207 0.42 0.525 0.63 0.892-2.361 1.574zM28.905 15.423l-0.944 0.944-1.049-1.469 0.944-0.682c0.157-0.157 0.367-0.21 0.577-0.21 0.427 0.043 0.758 0.4 0.758 0.835 0 0.226-0.089 0.43-0.234 0.581l0-0z"></path>
</symbol>
</defs>
</svg>
